<svg id="visual" viewBox="0 0 900 600" width="900" height="600" xmlns="http://www.w3.org/2000/svg" xmlns:xlink="http://www.w3.org/1999/xlink" version="1.1"><rect x="0" y="0" width="900" height="600" fill="#001220"></rect><path d="M0 450L12.5 457.7C25 465.3 50 480.7 75 486C100 491.3 125 486.7 150 476C175 465.3 200 448.7 225 441.2C250 433.7 275 435.3 300 434.2C325 433 350 429 375 434C400 439 425 453 450 456C475 459 500 451 525 454.2C550 457.3 575 471.7 600 472.7C625 473.7 650 461.3 675 461C700 460.7 725 472.3 750 476.8C775 481.3 800 478.7 825 466.8C850 455 875 434 887.5 423.5L900 413L900 601L887.5 601C875 601 850 601 825 601C800 601 775 601 750 601C725 601 700 601 675 601C650 601 625 601 600 601C575 601 550 601 525 601C500 601 475 601 450 601C425 601 400 601 375 601C350 601 325 601 300 601C275 601 250 601 225 601C200 601 175 601 150 601C125 601 100 601 75 601C50 601 25 601 12.5 601L0 601Z" fill="#fa7268"></path><path d="M0 468L12.5 473.3C25 478.7 50 489.3 75 485.2C100 481 125 462 150 458.7C175 455.3 200 467.7 225 475.7C250 483.7 275 487.3 300 480.5C325 473.7 350 456.3 375 461.7C400 467 425 495 450 501.3C475 507.7 500 492.3 525 491.3C550 490.3 575 503.7 600 510C625 516.3 650 515.7 675 501.8C700 488 725 461 750 454C775 447 800 460 825 464.5C850 469 875 465 887.5 463L900 461L900 601L887.5 601C875 601 850 601 825 601C800 601 775 601 750 601C725 601 700 601 675 601C650 601 625 601 600 601C575 601 550 601 525 601C500 601 475 601 450 601C425 601 400 601 375 601C350 601 325 601 300 601C275 601 250 601 225 601C200 601 175 601 150 601C125 601 100 601 75 601C50 601 25 601 12.5 601L0 601Z" fill="#f36567"></path><path d="M0 506L12.5 503.2C25 500.3 50 494.7 75 499.3C100 504 125 519 150 524.7C175 530.3 200 526.7 225 514.7C250 502.7 275 482.3 300 483.2C325 484 350 506 375 517.7C400 529.3 425 530.7 450 519.5C475 508.3 500 484.7 525 479.2C550 473.7 575 486.3 600 492.2C625 498 650 497 675 493.2C700 489.3 725 482.7 750 483C775 483.3 800 490.7 825 492.2C850 493.7 875 489.3 887.5 487.2L900 485L900 601L887.5 601C875 601 850 601 825 601C800 601 775 601 750 601C725 601 700 601 675 601C650 601 625 601 600 601C575 601 550 601 525 601C500 601 475 601 450 601C425 601 400 601 375 601C350 601 325 601 300 601C275 601 250 601 225 601C200 601 175 601 150 601C125 601 100 601 75 601C50 601 25 601 12.5 601L0 601Z" fill="#eb5967"></path><path d="M0 505L12.5 505.7C25 506.3 50 507.7 75 509.3C100 511 125 513 150 517.2C175 521.3 200 527.7 225 531.8C250 536 275 538 300 539.2C325 540.3 350 540.7 375 532.3C400 524 425 507 450 507.5C475 508 500 526 525 526.2C550 526.3 575 508.7 600 498.5C625 488.3 650 485.7 675 485.3C700 485 725 487 750 488.8C775 490.7 800 492.3 825 501.8C850 511.3 875 528.7 887.5 537.3L900 546L900 601L887.5 601C875 601 850 601 825 601C800 601 775 601 750 601C725 601 700 601 675 601C650 601 625 601 600 601C575 601 550 601 525 601C500 601 475 601 450 601C425 601 400 601 375 601C350 601 325 601 300 601C275 601 250 601 225 601C200 601 175 601 150 601C125 601 100 601 75 601C50 601 25 601 12.5 601L0 601Z" fill="#e34c67"></path><path d="M0 513L12.5 512.3C25 511.7 50 510.3 75 514.2C100 518 125 527 150 532.2C175 537.3 200 538.7 225 536.7C250 534.7 275 529.3 300 526.8C325 524.3 350 524.7 375 526.8C400 529 425 533 450 530.8C475 528.7 500 520.3 525 522.5C550 524.7 575 537.3 600 536.5C625 535.7 650 521.3 675 516.2C700 511 725 515 750 521.3C775 527.7 800 536.3 825 536C850 535.7 875 526.3 887.5 521.7L900 517L900 601L887.5 601C875 601 850 601 825 601C800 601 775 601 750 601C725 601 700 601 675 601C650 601 625 601 600 601C575 601 550 601 525 601C500 601 475 601 450 601C425 601 400 601 375 601C350 601 325 601 300 601C275 601 250 601 225 601C200 601 175 601 150 601C125 601 100 601 75 601C50 601 25 601 12.5 601L0 601Z" fill="#da3f67"></path><path d="M0 541L12.5 544.8C25 548.7 50 556.3 75 560.7C100 565 125 566 150 561.3C175 556.7 200 546.3 225 540.3C250 534.3 275 532.7 300 535.7C325 538.7 350 546.3 375 547.5C400 548.7 425 543.3 450 540.3C475 537.3 500 536.7 525 541.2C550 545.7 575 555.3 600 561.2C625 567 650 569 675 567.8C700 566.7 725 562.3 750 555.7C775 549 800 540 825 535.5C850 531 875 531 887.5 531L900 531L900 601L887.5 601C875 601 850 601 825 601C800 601 775 601 750 601C725 601 700 601 675 601C650 601 625 601 600 601C575 601 550 601 525 601C500 601 475 601 450 601C425 601 400 601 375 601C350 601 325 601 300 601C275 601 250 601 225 601C200 601 175 601 150 601C125 601 100 601 75 601C50 601 25 601 12.5 601L0 601Z" fill="#d03267"></path><path d="M0 563L12.5 562C25 561 50 559 75 559.7C100 560.3 125 563.7 150 563.5C175 563.3 200 559.7 225 558.2C250 556.7 275 557.3 300 559.3C325 561.3 350 564.7 375 567.7C400 570.7 425 573.3 450 572.3C475 571.3 500 566.7 525 563.2C550 559.7 575 557.3 600 559.2C625 561 650 567 675 570.8C700 574.7 725 576.3 750 576.7C775 577 800 576 825 575C850 574 875 573 887.5 572.5L900 572L900 601L887.5 601C875 601 850 601 825 601C800 601 775 601 750 601C725 601 700 601 675 601C650 601 625 601 600 601C575 601 550 601 525 601C500 601 475 601 450 601C425 601 400 601 375 601C350 601 325 601 300 601C275 601 250 601 225 601C200 601 175 601 150 601C125 601 100 601 75 601C50 601 25 601 12.5 601L0 601Z" fill="#c62368"></path></svg>